# AST/ASF file generated using VICON BodyLanguage
# -----------------------------------------------
:version 1.10
:name VICON
:units
  mass 1.0
  length 0.45
  angle deg
:documentation
   .ast/.asf automatically generated from VICON data using
   VICON BodyBuilder and BodyLanguage model FoxedUp or BRILLIANT.MOD
:root
   order TX TY TZ RX RY RZ
   axis XYZ
   position 0 0 0  
   orientation 0 0 0 
:bonedata
  begin
     id 1 
     name lhipjoint
     direction 0.578396 -0.714046 0.394458 
     length 2.21935 
     axis 0 0 0  XYZ
  end
  begin
     id 2 
     name lfemur
     direction 0.34202 -0.939693 0  
     length 6.39105  
     axis 0 0 20  XYZ
    dof rx ry rz
    limits (-160.0 20.0)
           (-70.0 70.0)
           (-60.0 70.0)
  end
  begin
     id 3 
     name ltibia
     direction 0.34202 -0.939693 0   
     length 6.99037   
     axis 0 0 20   XYZ
    dof rx
    limits (-10.0 170.0)
  end
  begin
     id 4 
     name lfoot
     direction 0.0582372 -0.160005 0.985397   
     length 2.06111   
     axis -90 7.62852e-016 20   XYZ
    dof rx rz
    limits (-45.0 90.0)
           (-70.0 20.0)
  end
  begin
     id 5 
     name ltoes
     direction 1.53556e-011 -4.21875e-011 1   
     length 1.04074   
     axis -90 7.62852e-016 20   XYZ
    dof rx
    limits (-90.0 20.0)
  end
  begin
     id 6 
     name rhipjoint
     direction -0.558179 -0.726269 0.40121   
     length 2.182  
     axis 0 0 0  XYZ 
  end
  begin
     id 7 
     name rfemur
     direction -0.34202 -0.939693 0   
     length 6.51172   
     axis 0 0 -20   XYZ
    dof rx ry rz
    limits (-160.0 20.0)
           (-70.0 70.0)
           (-70.0 60.0)
  end
  begin
     id 8 
     name rtibia
     direction -0.34202 -0.939693 0   
     length 7.02607   
     axis 0 0 -20   XYZ
    dof rx
    limits (-10.0 170.0)
 end
 begin
     id 9 
     name rfoot
     direction -0.0788856 -0.216737 0.973038   
     length 1.96734  
     axis -90 -7.62852e-016 -20   XYZ
    dof rx rz
    limits (-45.0 90.0)
           (-20.0 70.0)
  end
  begin
     id 10 
     name rtoes
     direction -1.53567e-011 -4.21783e-011 1   
     length 0.990825   
     axis -90 -7.62852e-016 -20   XYZ
    dof rx
    limits (-90.0 20.0)
  end
  begin
     id 11 
     name lowerback
     direction 0.00668177 0.999323 -0.0361741   
     length 1.7655   
     axis 0 0 0   XYZ
    dof rx ry rz
    limits (-20.0 45.0)
           (-30.0 30.0)
           (-30.0 30.0)
  end
  begin
     id 12 
     name upperback
     direction -0.00222086 0.99851 0.0545167   
     length 1.74912   
     axis 0 0 0   XYZ
    dof rx ry rz
    limits (-20.0 45.0)
           (-30.0 30.0)
           (-30.0 30.0)
  end
  begin
     id 13 
     name thorax
     direction -0.00733971 0.997496 0.0703443   
     length 1.75715   
     axis 0 0 0   XYZ
    dof rx ry rz
    limits (-20.0 45.0)
           (-30.0 30.0)
           (-30.0 30.0)
  end
  begin
     id 14 
     name lowerneck
     direction 0.0279797 0.994795 0.0979765   
     length 1.46939   
     axis 0 0 0   XYZ
    dof rx ry rz
    limits (-20.0 45.0)
           (-30.0 30.0)
           (-30.0 30.0)
  end
  begin
     id 15 
     name upperneck
     direction 0.00339187 0.976776 -0.214238   
     length 1.48018   
     axis 0 0 0   XYZ
    dof rx ry rz
    limits (-20.0 45.0)
           (-30.0 30.0)
           (-30.0 30.0)
  end
  begin
     id 16
     name head
     direction -0.00263506 0.996603 -0.0823096  
     length 1.4976  
     axis 0 0 0   XYZ
    dof rx ry rz
    limits (-20.0 45.0)
           (-30.0 30.0)
           (-30.0 30.0)
  end
  begin
     id 17 
     name lclavicle
     direction 0.894044 0.44508 -0.0508781  
     length 3.03024  
     axis 0 0 0   XYZ
    dof ry rz
    limits (-20.0 10.0)
           (0.0 20.0)
  end
  begin
     id 18 
     name lhumerus
     direction 1 -4.48961e-011 -2.39475e-018   
     length 4.4661   
     axis 180 -30 -90   XYZ
    dof rx ry rz
    limits (-60.0 90.0)
           (-90.0 90.0)
           (-90.0 90.0)
  end
  begin
     id 19
     name lradius
     direction 1 -4.48961e-011 9.29328e-028   
     length 3.41414   
     axis 180 -30 -90   XYZ
    dof rx
    limits (-10.0 170.0)
  end
  begin
     id 20
     name lwrist
     direction 1 -4.48985e-011 1.53461e-026   
     length 1.70707   
     axis -1.09697e-014 90 90   XYZ
    dof ry
    limits (-180.0 0.0)
 end
  begin
     id 21 
     name lhand
     direction 1 -4.48966e-011 3.06923e-026   
     length 0.328298   
     axis -1.95843e-014 90 90   XYZ
    dof rx rz
    limits (-90.0 90.0)
           (-45.0 45.0)
  end
  begin
     id 22 
     name lfingers
     direction 1 -4.48893e-011 6.13845e-026   
     length 0.264682   
     axis -3.91686e-014 90 90   XYZ
    dof rx
    limits (0.0 90.0)
  end
  begin
     id 23
     name lthumb
     direction 0.707107 -6.34876e-011 0.707107   
     length 0.380032   
     axis -90 45 2.85299e-015   XYZ
    dof rx rz
    limits (-45.0 45.0)
           (-45.0 45.0)
  end
  begin
     id 24 
     name rclavicle
     direction -0.936955 0.347862 -0.0332887   
     length 3.26927  
     axis 0 0 0   XYZ 
    dof ry rz
    limits (-10.0 20.0)
           (-20.0 0.0)
  end
  begin
     id 25 
     name rhumerus
     direction -1 -4.4896e-011 1.78637e-018  
     length 4.40431   
     axis 180 30 90   XYZ
    dof rx ry rz
    limits (-90.0 60.0)
           (-90.0 90.0)
           (-90.0 90.0)
  end
  begin
     id 26 
     name rradius
     direction -1 -4.48955e-011 9.34036e-027   
     length 3.04688   
     axis 180 30 90   XYZ
    dof rx
    limits (-10.0 170.0)
  end
  begin
     id 27 
     name rwrist
     direction -1 -4.49011e-011 1.53461e-026   
     length 1.52344   
     axis -1.09697e-014 -90 -90   XYZ
    dof ry
    limits (-180.0 0.0)
  end
  begin
     id 28
     name rhand
     direction -1 -4.48834e-011 3.06923e-026   
     length 0.500489   
     axis -1.95843e-014 -90 -90   XYZ
    dof rx rz
    limits (-90.0 90.0)
           (-45.0 45.0)
  end
  begin
     id 29
     name rfingers
     direction -1 -4.48967e-011 6.13845e-026   
     length 0.403507   
     axis -3.91686e-014 -90 -90   XYZ
    dof rx
    limits (0.0 90.0)
  end
  begin
     id 30
     name rthumb
     direction -0.707107 -6.34826e-011 0.707107   
     length 0.579358   
     axis -90 -45 -2.85299e-015   XYZ
    dof rx rz
    limits (-45.0 45.0)
           (-45.0 45.0)
  end
:hierarchy
  begin
    root lhipjoint rhipjoint lowerback
    lhipjoint lfemur
    lfemur ltibia
    ltibia lfoot
    lfoot ltoes
    rhipjoint rfemur
    rfemur rtibia
    rtibia rfoot
    rfoot rtoes
    lowerback upperback
    upperback thorax
    thorax lowerneck lclavicle rclavicle
    lowerneck upperneck
    upperneck head
    lclavicle lhumerus
    lhumerus lradius
    lradius lwrist
    lwrist lhand lthumb
    lhand lfingers
    rclavicle rhumerus
    rhumerus rradius
    rradius rwrist
    rwrist rhand rthumb
    rhand rfingers
  end

#!OML:ASF H:\IndianDance\Patient Classification 1\Patient 1\Session 1\dancer.ASF
:FULLY-SPECIFIED
:DEGREES
2391
root -2.41216 14.3111 8.12266 -172.627 8.77045 -174.276
lowerback 8.72383 2.26064 1.59194
upperback -6.1726 3.57447 0.924477
thorax -11.537 1.71237 -0.571095
lowerneck -17.7441 -2.17225 -1.2857
upperneck 19.6357 -3.58767 5.77572
head 9.25051 -0.952195 1.75846
rclavicle -2.3059e-014 3.97569e-016
rhumerus -11.653 40.096 -19.4589
rradius 105.086
rwrist -20.1454
rhand -24.8186 20.7946
rfingers 7.12502
rthumb 1.6868 -9.17853
lclavicle -2.3059e-014 3.97569e-016
lhumerus -2.57455 -35.8674 1.85827
lradius 109.928
lwrist 21.9487
lhand 8.69979 16.4474
lfingers 7.12502
lthumb 33.8921 403.255
rfemur -53.5223 -32.664 21.3135
rtibia 95.0327
rfoot -12.0836 -5.46675
rtoes 12.1492
lfemur -31.9305 23.7235 -20.3795
ltibia 60.2732
lfoot -29.7983 4.44043
ltoes 9.62226
2392
root -2.39686 14.3102 8.10965 -172.696 8.59815 -174.391
lowerback 8.64812 2.20325 1.62834
upperback -6.33878 3.51664 0.889393
thorax -11.6763 1.68397 -0.620715
lowerneck -17.6291 -2.26353 -1.47597
upperneck 19.4985 -3.66902 5.80571
head 9.18895 -1.00907 1.78821
rclavicle 9.83984e-015 -1.19271e-015
rhumerus -12.1187 39.465 -17.9736
rradius 101.708
rwrist -19.9148
rhand -24.0083 21.6078
rfingers 7.12502
rthumb 2.46937 -8.35767
lclavicle 9.83984e-015 -1.19271e-015
lhumerus -3.18625 -35.2765 0.829194
lradius 106.11
lwrist 20.6432
lhand 7.63318 14.9289
lfingers 7.12502
lthumb 32.8782 401.955
rfemur -53.1532 -32.6684 20.7989
rtibia 95.1456
rfoot -13.2996 -6.48201
rtoes 13.3969
lfemur -31.8316 23.585 -20.3757
ltibia 60.2995
lfoot -29.6875 4.50959
ltoes 8.93258
2393
root -2.37208 14.3136 8.09673 -172.817 8.46373 -174.406
lowerback 8.63668 2.21597 1.63073
upperback -6.49229 3.55253 0.883273
thorax -11.8435 1.70358 -0.640115
lowerneck -17.5948 -2.39007 -1.61309
upperneck 19.5115 -3.79438 5.73069
head 9.19286 -1.08774 1.76866
rclavicle -3.84648e-014 -8.74653e-015
rhumerus -12.5867 38.9566 -16.587
rradius 98.0606
rwrist -19.7597
rhand -23.1443 21.9168
rfingers 7.12502
rthumb 3.30379 -8.0373
lclavicle -3.84648e-014 -8.74653e-015
lhumerus -3.39349 -34.7259 -0.310423
lradius 102.091
lwrist 19.8456
lhand 7.45693 13.6827
lfingers 7.12502
lthumb 32.7105 400.744
rfemur -52.5884 -32.3572 20.3883
rtibia 94.9139
rfoot -14.5245 -7.50203
rtoes 15.3765
lfemur -31.6316 23.5099 -20.1911
ltibia 60.3028
lfoot -29.5767 4.52589
ltoes 8.30259
2394
root -2.34851 14.3178 8.08421 -172.871 8.34135 -174.543
lowerback 8.5455 2.19999 1.5596
upperback -6.66986 3.53822 0.850939
thorax -11.9931 1.70573 -0.634709
lowerneck -17.6159 -2.36966 -1.29861
upperneck 19.6662 -3.71954 5.07759
head 9.2259 -1.10264 1.50166
rclavicle -4.10739e-014 -3.1408e-014
rhumerus -12.7317 38.6536 -15.225
rradius 94.025
rwrist -19.588
rhand -22.2477 22.361
rfingers 7.12502
rthumb 4.16955 -7.57798
lclavicle -4.10739e-014 -3.1408e-014
lhumerus -3.59935 -34.2432 -1.2333
lradius 97.7833
lwrist 19.5136
lhand 7.74548 12.1233
lfingers 7.12502
lthumb 32.985 399.127
rfemur -52.0718 -31.9141 19.8336
rtibia 94.3225
rfoot -15.7016 -8.23157
rtoes 17.7656
lfemur -31.5168 23.4405 -20.1821
ltibia 60.2704
lfoot -29.4668 4.49408
ltoes 7.87476
2395
root -2.32085 14.3184 8.0741 -172.89 8.19875 -174.583
lowerback 8.45851 2.17647 1.50031
upperback -6.86242 3.51921 0.826362
thorax -12.1629 1.70586 -0.627575
lowerneck -17.3527 -2.56031 -1.76795
upperneck 19.3909 -3.9561 5.58308
head 9.11264 -1.20026 1.72198
rclavicle 1.01877e-015 -7.55382e-015
rhumerus -12.7252 38.4639 -14.0313
rradius 89.6764
rwrist -19.2717
rhand -21.2608 22.6046
rfingers 7.12502
rthumb 5.1225 -7.31348
lclavicle 1.01877e-015 -7.55382e-015
lhumerus -3.57438 -33.8442 -2.23435
lradius 93.3859
lwrist 19.5702
lhand 8.05394 11.6007
lfingers 7.12502
lthumb 33.2783 398.542
rfemur -51.5146 -31.3776 19.4958
rtibia 93.3043
rfoot -16.6175 -9.12946
rtoes 18.1876
lfemur -31.4604 23.3894 -20.0688
ltibia 60.2431
lfoot -29.3397 4.55559
ltoes 7.15389
2396
root -2.29258 14.32 8.06253 -172.906 8.11028 -174.79
lowerback 8.32824 2.17671 1.32243
upperback -7.05171 3.51313 0.783016
thorax -12.3083 1.72229 -0.575036
lowerneck -17.2453 -2.65239 -1.92492
upperneck 19.3932 -4.0214 5.4797
head 9.09679 -1.25692 1.70441
rclavicle 1.16786e-015 5.1684e-015
rhumerus -12.4138 38.4103 -12.7979
rradius 85.0423
rwrist -19.0481
rhand -19.9914 22.4154
rfingers 7.12502
rthumb 6.34814 -7.46948
lclavicle 1.16786e-015 5.1684e-015
lhumerus -3.48794 -33.5646 -3.00456
lradius 88.6752
lwrist 19.6213
lhand 8.01112 10.5324
lfingers 7.12502
lthumb 33.2376 397.482
rfemur -50.8559 -30.696 18.9499
rtibia 91.7863
rfoot -17.3712 -9.9317
rtoes 18.5628
lfemur -31.3845 23.3518 -20.145
ltibia 60.178
lfoot -29.2367 4.53188
ltoes 6.74123
2397
root -2.26117 14.3223 8.05151 -172.924 8.06039 -175.024
lowerback 8.20841 2.15428 1.0886
upperback -7.2475 3.46198 0.681114
thorax -12.4675 1.71887 -0.547321
lowerneck -17.143 -2.71316 -1.86284
upperneck 19.4306 -4.08964 5.33524
head 9.08892 -1.29964 1.63673
rclavicle -3.31473e-014 -1.59028e-014
rhumerus -11.8611 38.4284 -11.8428
rradius 80.0445
rwrist -18.7093
rhand -18.5191 21.8936
rfingers 7.12502
rthumb 7.76936 -7.94361
lclavicle -3.31473e-014 -1.59028e-014
lhumerus -3.26693 -33.3501 -3.88139
lradius 83.8237
lwrist 19.4616
lhand 7.80766 10.6476
lfingers 7.12502
lthumb 33.0441 397.638
rfemur -50.0519 -29.8393 18.3784
rtibia 89.682
rfoot -18.0014 -10.7552
rtoes 19.4935
lfemur -31.2924 23.3688 -20.2335
ltibia 60.0996
lfoot -29.1487 4.44194
ltoes 6.55238
2398
root -2.22819 14.3276 8.0396 -172.879 8.02007 -175.235
lowerback 8.00635 2.13676 0.851295
upperback -7.45371 3.42854 0.640526
thorax -12.5927 1.73137 -0.451406
lowerneck -17.0087 -2.7704 -2.00024
upperneck 19.4709 -4.11741 5.26993
head 9.08041 -1.33048 1.63487
rclavicle 1.78658e-014 8.74653e-015
rhumerus -11.0308 38.5129 -10.8589
rradius 74.8184
rwrist -18.1195
rhand -16.8345 20.8558
rfingers 7.12502
rthumb 9.39503 -8.91478
lclavicle 1.78658e-014 8.74653e-015
lhumerus -2.99722 -33.1045 -4.47145
lradius 78.9084
lwrist 18.9005
lhand 7.59251 11.3669
lfingers 7.12502
lthumb 32.8395 398.401
rfemur -49.1908 -28.7961 17.8462
rtibia 86.975
rfoot -18.5652 -11.5092
rtoes 20.8809
lfemur -31.2497 23.3744 -20.3192
ltibia 59.9895
lfoot -29.0154 4.50093
ltoes 5.90152
2399
root -2.19583 14.3351 8.02595 -172.818 8.0127 -175.394
lowerback 7.78618 2.11816 0.744825
upperback -7.64661 3.4016 0.524328
thorax -12.6785 1.73117 -0.510638
lowerneck -16.9551 -2.81647 -1.93423
upperneck 19.5506 -4.17775 5.18242
head 9.097 -1.35989 1.58742
rclavicle 2.98177e-014 1.47101e-014
rhumerus -10.1114 38.5258 -10.199
rradius 69.347
rwrist -17.3489
rhand -15.332 20.3433
rfingers 7.12502
rthumb 10.8445 -9.35667
lclavicle 2.98177e-014 1.47101e-014
lhumerus -2.52551 -32.7455 -5.13292
lradius 73.7475
lwrist 17.9514
lhand 7.59583 11.3432
lfingers 7.12502
lthumb 32.8427 398.377
rfemur -48.181 -27.637 17.3715
rtibia 83.6493
rfoot -19.0013 -12.385
rtoes 21.6171
lfemur -31.2025 23.4541 -20.3442
ltibia 59.8766
lfoot -28.8757 4.58915
ltoes 4.9352
